<svg width="279" height="100" viewBox="0 0 279 100" fill="none" xmlns="http://www.w3.org/2000/svg">
<g clip-path="url(#clip0_28_25)">
<path d="M69.373 37.7778L60.8697 53.8794L76.548 50.5613L72.5762 59.7535L55.7937 63.4912L52.7136 69.3234L76.0151 63.4951L86.304 37.7778H82.0715L78.3547 46.38L68.3178 48.4363L73.6055 37.7778H69.373ZM90.5365 37.7778L84.6099 53.8794H103.602L104.654 49.4975H90.8303L93.5294 41.4662H106.582L107.468 37.7778H90.5365ZM111.7 37.7778L108.35 53.8794L122.968 50.5491L122.595 53.8794H127.343L128.631 37.7778H111.7ZM132.864 37.7778L132.09 53.8794H136.839L136.949 47.05L144.372 53.8794H151.083L141.453 45.3671L149.795 37.7778H143.811L137.002 43.731L137.097 37.7778H132.864ZM151.911 37.7778L153.457 53.8794H172.449L171.467 49.4965H157.645L156.617 41.4662H169.668L168.842 37.7778H151.911ZM173.075 37.7778L177.198 53.8794H181.946L179.979 47.05L189.479 53.8794H196.191L183.973 45.3671L190.006 37.7778H184.022L179.023 43.731L177.308 37.7778H173.075ZM192.123 37.7778L198.565 53.8794L211.166 50.5691L212.808 53.8794H217.557L209.054 37.7778H204.82L209.086 46.3768L200.964 48.4449L196.355 37.7778H192.123ZM115.283 41.4662H123.985L123.437 46.359L114.053 48.4547L115.283 41.4662Z" fill="white"/>
<path d="M101.544 8.88899L100.869 12.9577H109.373L109.892 8.88899H101.544ZM96.2276 15.0499L92.8385 33.3331L107.239 29.6808L106.773 33.3331H111.418L113.398 15.0499H109.106L107.839 24.979L98.4848 27.3089L100.521 15.0499H96.2276ZM118.227 15.0499L116.643 33.3331H121.289L121.774 26.1363H130.785L130.578 33.3331H135.222L135.398 15.0499H131.106L130.917 21.5724H122.081L122.521 15.0499H118.227ZM139.69 15.0499L139.867 33.3331L153.555 29.6808L153.801 33.3331H158.446L156.861 15.0499H152.569L153.238 24.979L144.338 27.3089L143.984 15.0499H139.69ZM161.69 15.0499L163.671 33.3331H168.317L167.398 26.1363H176.41L177.606 33.3331H182.25L178.861 15.0499H174.569L175.652 21.5724H166.816L165.984 15.0499H161.69Z" fill="white"/>
<path d="M89.5217 -1.52588e-05H85.0729L65.8072 33.3333H70.9434L75.0176 26.2817L85.0729 23.5899V33.3333H89.5217V-1.52588e-05ZM85.0729 8.88241V18.9902L78.1601 20.8401L85.0729 8.88241Z" fill="white"/>
<path d="M188.899 0.0974121L181.976 12.1174L183.671 16.1508L197.72 19.8179L186.365 33.4308H192.173L201.242 22.5373L207.479 33.4308L212.619 33.3333L193.35 0.0974121H188.899ZM191.13 5.03406L196.879 14.9888L186.917 12.3239L191.13 5.03406Z" fill="white"/>
<path d="M65.8072 33.3333L46.5459 22.2222L0 100L52.9612 55.5555L59.4676 44.3044L18.4158 78.0241L48.1189 28.2654L61.6611 36.0737L61.365 41.0089L65.8072 33.3333Z" fill="white"/>
<path d="M231.882 22.2222L236.333 29.92L232.179 27.1814L218.695 34.9581L222.843 42.1377L236.418 43.2998L236.115 39.74L242.624 51.12L239.198 47.9985L225.56 46.8299L228.923 52.6543L264.939 82.8514L261.778 71.1333L278.462 100L225.463 55.5555L212.619 33.3333L231.882 22.2222Z" fill="white"/>
</g>
<defs>
<clipPath id="clip0_28_25">
<rect width="278.462" height="100" fill="white"/>
</clipPath>
</defs>
</svg>
